<svg width="24" height="24" viewBox="0 0 24 24" fill="none" xmlns="http://www.w3.org/2000/svg">
    <g clip-path="url(#clip0_155_1349)">
        <path
            d="M19.3404 14.49L18.3404 12.83C18.1304 12.46 17.9404 11.76 17.9404 11.35V8.82C17.9404 6.47 16.5604 4.44 14.5704 3.49C14.0504 2.57 13.0904 2 11.9904 2C10.9004 2 9.92043 2.59 9.40043 3.52C7.45043 4.49 6.10043 6.5 6.10043 8.82V11.35C6.10043 11.76 5.91043 12.46 5.70043 12.82L4.69043 14.49C4.29043 15.16 4.20043 15.9 4.45043 16.58C4.69043 17.25 5.26043 17.77 6.00043 18.02C7.94043 18.68 9.98043 19 12.0204 19C14.0604 19 16.1004 18.68 18.0404 18.03C18.7404 17.8 19.2804 17.27 19.5404 16.58C19.8004 15.89 19.7304 15.13 19.3404 14.49Z"
            fill="#0C1E33" />
        <path
            d="M14.8297 20.01C14.4097 21.17 13.2997 22 11.9997 22C11.2097 22 10.4297 21.68 9.87969 21.11C9.55969 20.81 9.31969 20.41 9.17969 20C9.30969 20.02 9.43969 20.03 9.57969 20.05C9.80969 20.08 10.0497 20.11 10.2897 20.13C10.8597 20.18 11.4397 20.21 12.0197 20.21C12.5897 20.21 13.1597 20.18 13.7197 20.13C13.9297 20.11 14.1397 20.1 14.3397 20.07C14.4997 20.05 14.6597 20.03 14.8297 20.01Z"
            fill="#0C1E33" />
    </g>
    <defs>
        <clipPath id="clip0_155_1349">
            <rect width="24" height="24" fill="white" />
        </clipPath>
    </defs>
</svg>
    