<svg width="25" height="25" viewBox="0 0 25 25" fill="none" xmlns="http://www.w3.org/2000/svg">
<path opacity="0.1" d="M24.1511 9.06255C24.1511 13.6189 20.4574 17.3125 15.9011 17.3125C15.3751 17.3125 14.8609 17.2627 14.3623 17.1686L13.2367 18.4349C13.1312 18.5537 13.0017 18.6487 12.8568 18.7138C12.7118 18.7789 12.5548 18.8125 12.3959 18.8125H10.6511V20.6875C10.6511 21.3088 10.1474 21.8125 9.52606 21.8125H7.65106V23.6875C7.65106 24.3088 7.14739 24.8125 6.52606 24.8125H1.27606C0.654734 24.8125 0.151062 24.3088 0.151062 23.6875V20.0285C0.151062 19.7301 0.269609 19.444 0.480546 19.233L8.06501 11.6485C7.79675 10.835 7.65106 9.96583 7.65106 9.0625C7.65106 4.50616 11.3447 0.812547 15.901 0.8125C20.4708 0.812453 24.1511 4.4927 24.1511 9.06255ZM15.9011 6.8125C15.9011 8.05516 16.9084 9.0625 18.1511 9.0625C19.3937 9.0625 20.4011 8.05516 20.4011 6.8125C20.4011 5.56984 19.3937 4.5625 18.1511 4.5625C16.9084 4.5625 15.9011 5.56984 15.9011 6.8125Z" fill="#005C78"/>
</svg>
