<svg width="16" height="16" viewBox="0 0 16 16" fill="none" xmlns="http://www.w3.org/2000/svg">
    <path
        d="M7.6 15.2C11.7974 15.2 15.2 11.7974 15.2 7.6C15.2 3.40264 11.7974 0 7.6 0C3.40264 0 0 3.40264 0 7.6C0 11.7974 3.40264 15.2 7.6 15.2Z"
        fill="#495D72" />
    <path
        d="M15.4399 16.0004C15.2959 16.0004 15.1519 15.9444 15.0479 15.8404L13.5599 14.3524C13.3439 14.1364 13.3439 13.7844 13.5599 13.5604C13.7759 13.3444 14.1279 13.3444 14.3519 13.5604L15.8399 15.0484C16.0559 15.2644 16.0559 15.6164 15.8399 15.8404C15.7279 15.9444 15.5839 16.0004 15.4399 16.0004Z"
        fill="#495D72" />
</svg>
    
    