<svg width="26" height="26" viewBox="0 0 26 26" fill="none" xmlns="http://www.w3.org/2000/svg">
<path d="M13.734 21.6196C14.0317 21.6888 14.0589 22.0786 13.769 22.1753L12.0574 22.7386C7.75655 24.1253 5.49238 22.9661 4.09488 18.6653L2.70821 14.3861C1.32155 10.0853 2.46988 7.81026 6.77071 6.42359L7.42304 6.20756C7.82591 6.07415 8.21662 6.47771 8.0999 6.88573C8.02971 7.13111 7.96267 7.38873 7.89738 7.65859L6.83571 12.1978C5.64405 17.3003 7.38821 20.1169 12.4907 21.3303L13.734 21.6196Z" fill="white"/>
<path d="M18.6009 3.47657L16.7917 3.05407C13.1734 2.19824 11.0175 2.90241 9.75003 5.52407C9.42503 6.18491 9.16503 6.98657 8.94837 7.90741L7.8867 12.4466C6.82503 16.9749 8.22253 19.2066 12.74 20.2791L14.56 20.7124C15.1884 20.8641 15.7734 20.9616 16.315 21.0049C19.695 21.3299 21.4934 19.7482 22.4034 15.8374L23.465 11.3091C24.5267 6.78074 23.14 4.53824 18.6009 3.47657ZM16.5642 14.4399C16.4667 14.8082 16.1417 15.0466 15.7734 15.0466C15.7084 15.0466 15.6434 15.0357 15.5675 15.0249L12.415 14.2232C11.9817 14.1149 11.7217 13.6707 11.83 13.2374C11.9384 12.8041 12.3825 12.5441 12.8159 12.6524L15.9684 13.4541C16.4125 13.5624 16.6725 14.0066 16.5642 14.4399ZM19.7384 10.7782C19.6409 11.1466 19.3159 11.3849 18.9475 11.3849C18.8825 11.3849 18.8175 11.3741 18.7417 11.3632L13.4875 10.0307C13.0542 9.92241 12.7942 9.47824 12.9025 9.04491C13.0109 8.61157 13.455 8.35157 13.8884 8.45991L19.1425 9.79241C19.5867 9.88991 19.8467 10.3341 19.7384 10.7782Z" fill="white"/>
</svg>
