<svg width="24" height="24" viewBox="0 0 24 24" fill="none" xmlns="http://www.w3.org/2000/svg">
<g clip-path="url(#clip0_155_1563)">
<path d="M19.3402 14.49L18.3402 12.83C18.1302 12.46 17.9402 11.76 17.9402 11.35V8.82C17.9402 6.47 16.5602 4.44 14.5702 3.49C14.0502 2.57 13.0902 2 11.9902 2C10.9002 2 9.92019 2.59 9.40019 3.52C7.45019 4.49 6.10019 6.5 6.10019 8.82V11.35C6.10019 11.76 5.91019 12.46 5.70019 12.82L4.69019 14.49C4.29019 15.16 4.20019 15.9 4.45019 16.58C4.69019 17.25 5.26019 17.77 6.00019 18.02C7.94019 18.68 9.98019 19 12.0202 19C14.0602 19 16.1002 18.68 18.0402 18.03C18.7402 17.8 19.2802 17.27 19.5402 16.58C19.8002 15.89 19.7302 15.13 19.3402 14.49Z" fill="white"/>
<path d="M14.8299 20.01C14.4099 21.17 13.2999 22 11.9999 22C11.2099 22 10.4299 21.68 9.87993 21.11C9.55993 20.81 9.31993 20.41 9.17993 20C9.30993 20.02 9.43993 20.03 9.57993 20.05C9.80993 20.08 10.0499 20.11 10.2899 20.13C10.8599 20.18 11.4399 20.21 12.0199 20.21C12.5899 20.21 13.1599 20.18 13.7199 20.13C13.9299 20.11 14.1399 20.1 14.3399 20.07C14.4999 20.05 14.6599 20.03 14.8299 20.01Z" fill="white"/>
</g>
<defs>
<clipPath id="clip0_155_1563">
<rect width="24" height="24" fill="white"/>
</clipPath>
</defs>
</svg>
