<svg width="21" height="22" viewBox="0 0 21 22" fill="none" xmlns="http://www.w3.org/2000/svg">
<path d="M19.2588 5.02375V15.4275C19.2588 16.2762 18.5675 17.055 17.7188 17.16L17.4475 17.195C16.0125 17.3875 13.9913 17.9825 12.3638 18.665C11.795 18.9012 11.165 18.4725 11.165 17.8512V5.68C11.165 5.35625 11.3488 5.05875 11.6375 4.90125C13.2388 4.035 15.6625 3.265 17.3075 3.125H17.36C18.41 3.125 19.2588 3.97375 19.2588 5.02375Z" fill="white"/>
<path d="M9.38 4.90125C7.77875 4.035 5.355 3.265 3.71 3.125H3.64875C2.59875 3.125 1.75 3.97375 1.75 5.02375V15.4275C1.75 16.2762 2.44125 17.055 3.29 17.16L3.56125 17.195C4.99625 17.3875 7.0175 17.9825 8.645 18.665C9.21375 18.9012 9.84375 18.4725 9.84375 17.8512V5.68C9.84375 5.3475 9.66875 5.05875 9.38 4.90125Z" fill="white"/>
</svg>
