<svg width="24" height="24" viewBox="0 0 24 24" fill="none" xmlns="http://www.w3.org/2000/svg">
<g clip-path="url(#clip0_178_2563)">
<path fill-rule="evenodd" clip-rule="evenodd" d="M24 12C24 15.1826 22.7357 18.2348 20.4853 20.4853C18.2348 22.7357 15.1826 24 12 24C8.8174 24 5.76515 22.7357 3.51472 20.4853C1.26428 18.2348 0 15.1826 0 12C0 8.8174 1.26428 5.76515 3.51472 3.51472C5.76515 1.26428 8.8174 0 12 0C15.1826 0 18.2348 1.26428 20.4853 3.51472C22.7357 5.76515 24 8.8174 24 12ZM14.5714 6C14.5714 6.68199 14.3005 7.33604 13.8183 7.81827C13.336 8.30051 12.682 8.57143 12 8.57143C11.318 8.57143 10.664 8.30051 10.1817 7.81827C9.69949 7.33604 9.42857 6.68199 9.42857 6C9.42857 5.31801 9.69949 4.66396 10.1817 4.18173C10.664 3.69949 11.318 3.42857 12 3.42857C12.682 3.42857 13.336 3.69949 13.8183 4.18173C14.3005 4.66396 14.5714 5.31801 14.5714 6ZM13.9509 19.9886L14.4771 15.7869H15.7149C16.0577 15.7869 16.332 15.5091 16.332 15.168V13.9286C16.3094 12.7944 15.843 11.7142 15.0329 10.92C14.2228 10.1259 13.1336 9.68105 11.9991 9.68105C10.8647 9.68105 9.77548 10.1259 8.96537 10.92C8.15526 11.7142 7.68885 12.7944 7.66629 13.9286V15.168C7.66629 15.5109 7.944 15.7851 8.28514 15.7851H9.52286L10.0491 19.9886C10.075 20.1958 10.1757 20.3865 10.3323 20.5248C10.4889 20.663 10.6905 20.7394 10.8994 20.7394H13.1006C13.3095 20.7394 13.5111 20.663 13.6677 20.5248C13.8243 20.3865 13.925 20.1958 13.9509 19.9886Z" fill="white"/>
</g>
<defs>
<clipPath id="clip0_178_2563">
<rect width="24" height="24" fill="white"/>
</clipPath>
</defs>
</svg>
